<svg xmlns="http://www.w3.org/2000/svg" viewBox="0 0 1200 900" width="1200" height="900">
  <defs>
    <linearGradient id="bgGrad" x1="0" y1="0" x2="1" y2="1">
      <stop offset="0%" stop-color="#ffe7c2" stop-opacity="0.4"/>
      <stop offset="40%" stop-color="#f6f4ee" stop-opacity="1"/>
      <stop offset="100%" stop-color="#c5eaf5" stop-opacity="0.3"/>
    </linearGradient>
    <linearGradient id="heroGrad" x1="0" y1="0" x2="1" y2="1">
      <stop offset="0%" stop-color="#fff7e9"/>
      <stop offset="54%" stop-color="#fffdf7"/>
      <stop offset="100%" stop-color="#f0fafc"/>
    </linearGradient>
    <linearGradient id="coralGrad" x1="0" y1="0" x2="1" y2="1">
      <stop offset="0%" stop-color="#f37754"/>
      <stop offset="100%" stop-color="#dd5f3f"/>
    </linearGradient>
    <linearGradient id="sunGrad" x1="0" y1="0" x2="1" y2="0">
      <stop offset="0%" stop-color="#f5bf45"/>
      <stop offset="100%" stop-color="#e8a820"/>
    </linearGradient>
    <linearGradient id="tone1" x1="0" y1="0" x2="1" y2="1">
      <stop offset="0%" stop-color="#fff7ea"/>
      <stop offset="74%" stop-color="#fffdf8"/>
    </linearGradient>
    <linearGradient id="tone2" x1="0" y1="0" x2="1" y2="1">
      <stop offset="0%" stop-color="#edf9fd"/>
      <stop offset="74%" stop-color="#fffdf8"/>
    </linearGradient>
    <linearGradient id="tone3" x1="0" y1="0" x2="1" y2="1">
      <stop offset="0%" stop-color="#f5f9ea"/>
      <stop offset="74%" stop-color="#fffdf8"/>
    </linearGradient>
    <linearGradient id="tone4" x1="0" y1="0" x2="1" y2="1">
      <stop offset="0%" stop-color="#fff1ed"/>
      <stop offset="74%" stop-color="#fffdf8"/>
    </linearGradient>
    <linearGradient id="rankGrad" x1="0" y1="0" x2="1" y2="1">
      <stop offset="0%" stop-color="#fff8e8"/>
      <stop offset="74%" stop-color="#fffdf8"/>
    </linearGradient>
    <marker id="arrowInk" viewBox="0 0 12 8" refX="12" refY="4" markerWidth="10" markerHeight="7" orient="auto-start-reverse">
      <polygon points="0 0, 12 4, 0 8" fill="#192236" opacity="0.25"/>
    </marker>
    <filter id="heroShadow">
      <feDropShadow dx="0" dy="6" stdDeviation="12" flood-color="#a08050" flood-opacity="0.13"/>
    </filter>
    <filter id="cardShadow">
      <feDropShadow dx="0" dy="3" stdDeviation="6" flood-color="#a08050" flood-opacity="0.10"/>
    </filter>
    <filter id="subtleShadow">
      <feDropShadow dx="0" dy="1" stdDeviation="3" flood-color="#a08050" flood-opacity="0.06"/>
    </filter>
    <pattern id="gridNoise" width="32" height="32" patternUnits="userSpaceOnUse">
      <line x1="0" y1="0" x2="0" y2="32" stroke="#192236" stroke-opacity="0.04" stroke-width="1"/>
      <line x1="0" y1="0" x2="32" y2="0" stroke="#192236" stroke-opacity="0.04" stroke-width="1"/>
    </pattern>
  </defs>

  <style>
    text { font-family: 'Space Grotesk', 'Noto Sans JP', 'Hiragino Kaku Gothic ProN', 'Yu Gothic', sans-serif; }
  </style>

  <!-- ========== 背景 ========== -->
  <rect width="1200" height="900" fill="url(#bgGrad)"/>
  <rect width="1200" height="900" fill="url(#gridNoise)"/>


  <!-- ================================================================ -->
  <!--  TIER 1 — ヒーロー：ひと目で「何ができるか」が伝わる             -->
  <!-- ================================================================ -->

  <rect x="20" y="16" width="1160" height="130" rx="28" fill="url(#heroGrad)" stroke="#dbcdb7" stroke-width="1" filter="url(#heroShadow)"/>

  <!-- kicker -->
  <text x="44" y="46" fill="#9a5f17" font-size="11" font-weight="700" letter-spacing="2.5">TODAY'S INSAITO</text>

  <!-- メインコピー -->
  <text x="44" y="80" fill="#192236" font-size="26" font-weight="800" letter-spacing="-0.5">出版業界の「今」を、毎朝自動で届ける</text>

  <!-- サブコピー -->
  <text x="44" y="108" fill="#4c5a73" font-size="13">32の公開データソースからトレンドを収集・分析し、毎日 08:00 / 16:00 に自動更新。運用コスト ¥0。</text>

  <!-- バッジ群 -->
  <rect x="830" y="40" width="142" height="28" rx="14" fill="url(#coralGrad)"/>
  <text x="848" y="59" fill="#fff" font-size="10" font-weight="700">Zero Dependencies</text>

  <rect x="982" y="40" width="116" height="28" rx="14" fill="rgba(63,154,183,0.12)" stroke="rgba(63,154,183,0.35)" stroke-width="1"/>
  <text x="997" y="59" fill="#245f72" font-size="10" font-weight="700">完全無料運用</text>

  <rect x="830" y="76" width="268" height="28" rx="14" fill="rgba(106,143,79,0.12)" stroke="rgba(106,143,79,0.3)" stroke-width="1"/>
  <text x="848" y="95" fill="#4a6a30" font-size="10" font-weight="700">Node.js 標準ライブラリのみ — 外部パッケージ不要</text>


  <!-- ================================================================ -->
  <!--  TIER 2 — メインストーリー：ソース → 知性 → 成果物               -->
  <!--  ソースを大きく・具体的に。出版人が知っている名前を並べる         -->
  <!-- ================================================================ -->

  <!-- ── 大きな矢印フロー（背景に薄く） ── -->
  <path d="M 420 365 L 458 365" stroke="#192236" stroke-width="2.5" fill="none" marker-end="url(#arrowInk)" opacity="0.18"/>
  <path d="M 780 365 L 818 365" stroke="#192236" stroke-width="2.5" fill="none" marker-end="url(#arrowInk)" opacity="0.18"/>

  <!-- フローラベル -->
  <text x="425" y="356" fill="#9a5f17" font-size="9" font-weight="700" opacity="0.5">自動収集</text>
  <text x="785" y="356" fill="#9a5f17" font-size="9" font-weight="700" opacity="0.5">分析・配信</text>


  <!-- ───────────────── 左: データソース（主役） ───────────────── -->
  <g id="sources">
    <rect x="20" y="170" width="390" height="420" rx="22" fill="#fffdf7" stroke="#dbcdb7" stroke-width="1" filter="url(#heroShadow)"/>

    <text x="42" y="200" fill="#9a5f17" font-size="10" font-weight="700" letter-spacing="2">DATA SOURCES</text>
    <text x="42" y="226" fill="#192236" font-size="20" font-weight="800">32の公開データソース</text>
    <text x="42" y="248" fill="#4c5a73" font-size="11">業界ニュース・書店ランキング・SNS・AIを横断</text>

    <!-- ニュース系 -->
    <rect x="36" y="266" width="360" height="54" rx="14" fill="url(#tone1)" stroke="#dbcdb7" stroke-width="0.5"/>
    <circle cx="56" cy="288" r="11" fill="#f5bf45" opacity="0.85"/>
    <text x="50" y="292" fill="#7e4d08" font-size="9" font-weight="700">R</text>
    <text x="74" y="286" fill="#192236" font-size="13" font-weight="700">ニュース・メディア</text>
    <rect x="216" y="276" width="32" height="18" rx="9" fill="rgba(243,119,84,0.12)" stroke="rgba(243,119,84,0.3)" stroke-width="0.5"/>
    <text x="224" y="290" fill="#b8430a" font-size="10" font-weight="700">15</text>
    <text x="74" y="306" fill="#4c5a73" font-size="10">Google News (13クエリ) / 新文化オンライン / HON.jp News</text>

    <!-- ランキング系 -->
    <rect x="36" y="328" width="360" height="72" rx="14" fill="url(#rankGrad)" stroke="#e8d49a" stroke-width="0.5"/>
    <circle cx="56" cy="352" r="11" fill="#6a8f4f" opacity="0.85"/>
    <text x="49" y="356" fill="#fff" font-size="10" font-weight="700">&#x266F;</text>
    <text x="74" y="350" fill="#192236" font-size="13" font-weight="700">書店・ECランキング</text>
    <rect x="230" y="340" width="24" height="18" rx="9" fill="rgba(106,143,79,0.15)" stroke="rgba(106,143,79,0.35)" stroke-width="0.5"/>
    <text x="237" y="354" fill="#4a6a30" font-size="10" font-weight="700">8</text>
    <text x="74" y="370" fill="#192236" font-size="10" font-weight="600">Amazon / 楽天ブックス / 丸善ジュンク堂</text>
    <text x="74" y="388" fill="#192236" font-size="10" font-weight="600">有隣堂 / トーハン / Kindle日替わり</text>

    <!-- SNS・ソーシャル -->
    <rect x="36" y="408" width="172" height="52" rx="14" fill="url(#tone2)" stroke="rgba(63,154,183,0.25)" stroke-width="0.5"/>
    <circle cx="56" cy="430" r="11" fill="#3f9ab7" opacity="0.85"/>
    <text x="50" y="434" fill="#fff" font-size="9" font-weight="700">S</text>
    <text x="74" y="428" fill="#192236" font-size="12" font-weight="700">ソーシャル</text>
    <text x="74" y="446" fill="#4c5a73" font-size="9">Yahoo! / はてブ</text>

    <!-- AI検索 -->
    <rect x="216" y="408" width="180" height="52" rx="14" fill="url(#tone4)" stroke="rgba(243,119,84,0.2)" stroke-width="0.5"/>
    <circle cx="236" cy="430" r="11" fill="#f37754" opacity="0.85"/>
    <text x="228" y="434" fill="#fff" font-size="8" font-weight="700">AI</text>
    <text x="254" y="428" fill="#192236" font-size="12" font-weight="700">AI検索</text>
    <text x="310" y="428" fill="#4c5a73" font-size="9">(オプション)</text>
    <text x="254" y="446" fill="#4c5a73" font-size="9">X/Grok x_search</text>

    <!-- 倫理・コンプライアンス表示 -->
    <line x1="36" y1="474" x2="396" y2="474" stroke="#dbcdb7" stroke-width="0.5"/>
    <rect x="36" y="486" width="108" height="22" rx="11" fill="rgba(106,143,79,0.10)" stroke="rgba(106,143,79,0.3)" stroke-width="0.5"/>
    <text x="48" y="501" fill="#4a6a30" font-size="8" font-weight="700">公開データのみ利用</text>
    <rect x="150" y="486" width="118" height="22" rx="11" fill="rgba(106,143,79,0.10)" stroke="rgba(106,143,79,0.3)" stroke-width="0.5"/>
    <text x="162" y="501" fill="#4a6a30" font-size="8" font-weight="700">レート制限を遵守</text>
    <rect x="274" y="486" width="118" height="22" rx="11" fill="rgba(106,143,79,0.10)" stroke="rgba(106,143,79,0.3)" stroke-width="0.5"/>
    <text x="286" y="501" fill="#4a6a30" font-size="8" font-weight="700">31/32が完全無料</text>

    <!-- 補足テキスト -->
    <text x="42" y="538" fill="#4c5a73" font-size="8" opacity="0.6">各ソースの取得間隔・上限を個別制御 / ロボット検知時は即時停止</text>
    <text x="42" y="552" fill="#4c5a73" font-size="8" opacity="0.6">Streaming読込でメモリ・帯域を効率化 / タイムアウト12秒</text>
  </g>


  <!-- ───────────────── 中央: 知性（分析エンジン） ───────────────── -->
  <g id="intelligence">
    <rect x="470" y="170" width="300" height="420" rx="22" fill="#fffdf7" stroke="#dbcdb7" stroke-width="1" filter="url(#cardShadow)"/>

    <text x="492" y="200" fill="#9a5f17" font-size="10" font-weight="700" letter-spacing="2">INTELLIGENCE</text>
    <text x="492" y="226" fill="#192236" font-size="20" font-weight="800">分析・知性化</text>
    <text x="492" y="248" fill="#4c5a73" font-size="11">収集データを自動で整理・ランク付け</text>

    <!-- 独自スコアリング -->
    <rect x="486" y="268" width="268" height="72" rx="14" fill="url(#tone3)" stroke="rgba(106,143,79,0.35)" stroke-width="0.5"/>
    <rect x="498" y="276" width="104" height="20" rx="10" fill="rgba(106,143,79,0.85)"/>
    <text x="508" y="291" fill="#fff" font-size="9" font-weight="700">独自スコアリング</text>
    <text x="498" y="314" fill="#192236" font-size="12" font-weight="700">優先度 x メトリクス x 新鮮度</text>
    <text x="498" y="332" fill="#4c5a73" font-size="9">ソース信頼度・いいね数・ランキング順位・</text>
    <text x="498" y="332" fill="#4c5a73" font-size="9">ソースの信頼度 × 反響数 × 公開時刻の新しさ</text>

    <!-- TF-IDFクラスタリング -->
    <rect x="486" y="350" width="268" height="72" rx="14" fill="url(#tone4)" stroke="rgba(243,119,84,0.25)" stroke-width="0.5"/>
    <rect x="498" y="358" width="72" height="20" rx="10" fill="url(#coralGrad)"/>
    <text x="510" y="373" fill="#fff" font-size="9" font-weight="700">自前実装</text>
    <text x="498" y="396" fill="#192236" font-size="12" font-weight="700">TF-IDFクラスタリング</text>
    <text x="498" y="414" fill="#4c5a73" font-size="9">話題を自動グルーピング、キーフレーズ抽出</text>

    <!-- 重複排除 -->
    <rect x="486" y="432" width="268" height="42" rx="12" fill="url(#tone2)" stroke="#dbcdb7" stroke-width="0.5"/>
    <text x="498" y="454" fill="#192236" font-size="11" font-weight="600">重複排除</text>
    <text x="498" y="468" fill="#4c5a73" font-size="9">同じ記事を複数ソースから拾っても1件に統合</text>

    <!-- 素材セレクション -->
    <rect x="486" y="484" width="268" height="36" rx="12" fill="rgba(25,34,54,0.03)" stroke="rgba(25,34,54,0.07)" stroke-width="0.5"/>
    <text x="498" y="506" fill="#4c5a73" font-size="10">上位30件を多様なソースから選出</text>

    <!-- カバレッジ統計 -->
    <rect x="486" y="530" width="268" height="26" rx="10" fill="rgba(25,34,54,0.03)" stroke="rgba(25,34,54,0.07)" stroke-width="0.5"/>
    <text x="498" y="548" fill="#4c5a73" font-size="8.5" opacity="0.7">取得成功率・重複削減数などの統計を自動記録</text>
  </g>


  <!-- ───────────────── 右: 成果物（配信・ストレージ） ───────────────── -->
  <g id="output">
    <rect x="830" y="170" width="350" height="280" rx="22" fill="#fffdf7" stroke="#dbcdb7" stroke-width="1" filter="url(#cardShadow)"/>

    <text x="852" y="200" fill="#9a5f17" font-size="10" font-weight="700" letter-spacing="2">OUTPUT</text>
    <text x="852" y="226" fill="#192236" font-size="20" font-weight="800">毎日届く成果物</text>
    <text x="852" y="248" fill="#4c5a73" font-size="11">ブラウザを開くだけで最新トレンドを確認</text>

    <!-- GitHub Pages -->
    <rect x="844" y="266" width="156" height="72" rx="14" fill="url(#tone2)" stroke="rgba(63,154,183,0.3)" stroke-width="0.5"/>
    <circle cx="864" cy="290" r="11" fill="#192236"/>
    <text x="856" y="294" fill="#fff" font-size="9" font-weight="700">GH</text>
    <text x="882" y="290" fill="#192236" font-size="12" font-weight="700">GitHub Pages</text>
    <text x="860" y="310" fill="#4c5a73" font-size="9">静的サイトとして自動公開</text>
    <text x="860" y="324" fill="#4c5a73" font-size="9">サーバー不要・完全無料</text>

    <!-- ローカル -->
    <rect x="1010" y="266" width="156" height="72" rx="14" fill="url(#tone3)" stroke="rgba(106,143,79,0.3)" stroke-width="0.5"/>
    <circle cx="1030" cy="290" r="11" fill="#192236"/>
    <text x="1023" y="294" fill="#6a8f4f" font-size="9" font-weight="700">S</text>
    <text x="1048" y="290" fill="#192236" font-size="12" font-weight="700">ローカル版</text>
    <text x="1026" y="310" fill="#4c5a73" font-size="9">REST API + ライブ更新</text>
    <text x="1026" y="324" fill="#4c5a73" font-size="9">手動リフレッシュ可能</text>

    <!-- フロントエンド -->
    <rect x="844" y="350" width="322" height="44" rx="14" fill="url(#tone1)" stroke="#dbcdb7" stroke-width="0.5"/>
    <text x="862" y="374" fill="#192236" font-size="11" font-weight="600">Vanilla JS フロントエンド</text>
    <text x="862" y="388" fill="#4c5a73" font-size="8.5">フレームワーク不使用 / Skeleton Loading / スクロールアニメーション</text>

    <!-- ストレージ（小さめ、下部） -->
    <rect x="844" y="404" width="322" height="32" rx="10" fill="rgba(25,34,54,0.03)" stroke="rgba(25,34,54,0.07)" stroke-width="0.5"/>
    <text x="862" y="425" fill="#4c5a73" font-size="9">JSON永続化 (Atomic Write) — themes / trends / snapshot</text>
  </g>


  <!-- ================================================================ -->
  <!--  TIER 3 — 自動化（日常運用の安心感）                             -->
  <!-- ================================================================ -->

  <g id="automation">
    <rect x="20" y="614" width="1160" height="108" rx="22" fill="#fffdf7" stroke="#dbcdb7" stroke-width="1" filter="url(#cardShadow)"/>

    <!-- リボン帯 -->
    <rect x="20" y="614" width="1160" height="36" rx="22" fill="rgba(245,191,69,0.12)"/>
    <rect x="20" y="636" width="1160" height="14" fill="rgba(245,191,69,0.12)"/>
    <text x="44" y="639" fill="#9a5f17" font-size="10" font-weight="700" letter-spacing="2">DAILY AUTOMATION</text>
    <text x="240" y="639" fill="#192236" font-size="15" font-weight="700">毎日、人手ゼロで動く</text>
    <text x="470" y="639" fill="#4c5a73" font-size="10">GitHub Actions Cron + 独自スケジューラ</text>

    <!-- 08:00 -->
    <rect x="36" y="660" width="250" height="48" rx="12" fill="url(#tone2)" stroke="rgba(63,154,183,0.25)" stroke-width="0.5"/>
    <rect x="48" y="667" width="54" height="20" rx="10" fill="rgba(63,154,183,0.85)"/>
    <text x="58" y="681" fill="#fff" font-size="10" font-weight="700">08:00</text>
    <text x="110" y="681" fill="#192236" font-size="11" font-weight="700">朝 — 全ソース収集</text>
    <text x="48" y="700" fill="#4c5a73" font-size="9">ニュース・ランキング・セール・SNS すべて取得</text>

    <!-- 16:00 -->
    <rect x="300" y="660" width="250" height="48" rx="12" fill="url(#tone1)" stroke="rgba(245,191,69,0.25)" stroke-width="0.5"/>
    <rect x="312" y="667" width="54" height="20" rx="10" fill="url(#sunGrad)"/>
    <text x="322" y="681" fill="#fff" font-size="10" font-weight="700">16:00</text>
    <text x="374" y="681" fill="#192236" font-size="11" font-weight="700">午後 — 記事だけ更新</text>
    <text x="312" y="700" fill="#4c5a73" font-size="9">ランキング・セールは朝のまま維持して効率化</text>

    <!-- Afternoon Fallback -->
    <rect x="564" y="660" width="250" height="48" rx="12" fill="url(#tone4)" stroke="rgba(243,119,84,0.2)" stroke-width="0.5"/>
    <rect x="576" y="667" width="118" height="20" rx="10" fill="url(#coralGrad)"/>
    <text x="588" y="681" fill="#fff" font-size="9" font-weight="700">Afternoon Fallback</text>
    <text x="576" y="700" fill="#192236" font-size="9" font-weight="600">朝の取得が失敗しても、午後に自動で補完</text>

    <!-- X フォールバック -->
    <rect x="828" y="660" width="338" height="48" rx="12" fill="rgba(25,34,54,0.03)" stroke="rgba(25,34,54,0.07)" stroke-width="0.5"/>
    <text x="842" y="681" fill="#192236" font-size="10" font-weight="600">常にコンテンツを表示</text>
    <text x="842" y="700" fill="#4c5a73" font-size="9">X投稿0件 → 直近10回のキャッシュから補完 / 旧データでフォールバック</text>
  </g>


  <!-- ================================================================ -->
  <!--  TIER 4 — 技術詳細（エンジニア向け、小さく・控えめに）           -->
  <!-- ================================================================ -->

  <g id="tech-details" opacity="0.85">
    <rect x="20" y="742" width="1160" height="138" rx="18" fill="rgba(25,34,54,0.025)" stroke="rgba(25,34,54,0.08)" stroke-width="0.5" filter="url(#subtleShadow)"/>

    <text x="44" y="768" fill="#4c5a73" font-size="9" font-weight="700" letter-spacing="1.5">ENGINEERING DETAILS</text>

    <!-- 収集技術 -->
    <rect x="36" y="784" width="222" height="82" rx="12" fill="#fffdf7" stroke="#dbcdb7" stroke-width="0.5"/>
    <text x="50" y="803" fill="#192236" font-size="10" font-weight="700">収集技術</text>
    <text x="50" y="820" fill="#4c5a73" font-size="8.5">Worker Pool — 4並列制御</text>
    <text x="50" y="834" fill="#4c5a73" font-size="8.5">Streaming Reader — 2MB上限</text>
    <text x="50" y="848" fill="#4c5a73" font-size="8.5">Exponential Backoff — API再試行</text>
    <text x="50" y="862" fill="#4c5a73" font-size="8.5">AbortController — 12秒タイムアウト</text>

    <!-- 分析技術 -->
    <rect x="272" y="784" width="222" height="82" rx="12" fill="#fffdf7" stroke="#dbcdb7" stroke-width="0.5"/>
    <text x="286" y="803" fill="#192236" font-size="10" font-weight="700">分析技術</text>
    <text x="286" y="820" fill="#4c5a73" font-size="8.5">TF-IDF風トークン統計</text>
    <text x="286" y="834" fill="#4c5a73" font-size="8.5">多次元スコアリング (priority x metric x recency)</text>
    <text x="286" y="848" fill="#4c5a73" font-size="8.5">ストップワード除外 (35語)</text>
    <text x="286" y="862" fill="#4c5a73" font-size="8.5">クラスタ最大5件 / テーマ最大10件</text>

    <!-- データ永続化 -->
    <rect x="508" y="784" width="222" height="82" rx="12" fill="#fffdf7" stroke="#dbcdb7" stroke-width="0.5"/>
    <text x="522" y="803" fill="#192236" font-size="10" font-weight="700">データ永続化</text>
    <text x="522" y="820" fill="#4c5a73" font-size="8.5">Atomic Write — temp → fsync → rename</text>
    <text x="522" y="834" fill="#4c5a73" font-size="8.5">親ディレクトリ fsync (macOS対応)</text>
    <text x="522" y="848" fill="#4c5a73" font-size="8.5">最新1000件のrun履歴を保持</text>
    <text x="522" y="862" fill="#4c5a73" font-size="8.5">JSON破損リスクをゼロに</text>

    <!-- セキュリティ -->
    <rect x="744" y="784" width="222" height="82" rx="12" fill="#fffdf7" stroke="#dbcdb7" stroke-width="0.5"/>
    <text x="758" y="803" fill="#192236" font-size="10" font-weight="700">セキュリティ</text>
    <text x="758" y="820" fill="#4c5a73" font-size="8.5">Timing-safe認証 (timingSafeEqual)</text>
    <text x="758" y="834" fill="#4c5a73" font-size="8.5">CSRF対策 — Origin検証</text>
    <text x="758" y="848" fill="#4c5a73" font-size="8.5">レート制限 — 30秒間隔</text>
    <text x="758" y="862" fill="#4c5a73" font-size="8.5">入力サイズ制限 — 1MB</text>

    <!-- CI/CD -->
    <rect x="980" y="784" width="186" height="82" rx="12" fill="#fffdf7" stroke="#dbcdb7" stroke-width="0.5"/>
    <text x="994" y="803" fill="#192236" font-size="10" font-weight="700">CI/CD</text>
    <text x="994" y="820" fill="#4c5a73" font-size="8.5">GitHub Actions (cron)</text>
    <text x="994" y="834" fill="#4c5a73" font-size="8.5">スナップショット生成</text>
    <text x="994" y="848" fill="#4c5a73" font-size="8.5">旧キャッシュ補完</text>
    <text x="994" y="862" fill="#4c5a73" font-size="8.5">静的デプロイ自動化</text>
  </g>

  <!-- フッター -->
  <text x="20" y="894" fill="#4c5a73" font-size="8" opacity="0.45">Today's InSaito — Built with Node.js 20+ / Zero Dependencies / Zero Cost Infrastructure</text>

</svg>
