<?xml version="1.0" encoding="UTF-8"?>
<svg id="_レイヤー_1" data-name="レイヤー_1" xmlns="http://www.w3.org/2000/svg" version="1.1" viewBox="0 0 141.73 141.73">
  <!-- Generator: Adobe Illustrator 30.2.1, SVG Export Plug-In . SVG Version: 2.1.1 Build 1)  -->
  <defs>
    <style>
      .st0 {
        fill: #231815;
      }
    </style>
  </defs>
  <path class="st0" d="M120.11,14.77c-.27,1.6-.44,3.17-.5,4.7-.07,1.53-.1,3.1-.1,4.7,0,1.87-.03,3.67-.1,5.4-.07,1.73-.23,3.53-.5,5.4-.13.27-.2.67-.2,1.2.13,1.33.37,2.63.7,3.9.33,1.27.37,2.43.1,3.5-.27.67-.33,1.33-.2,2,.13.67.07,1.33-.2,2-.13.27-.27.53-.4.8-.13.27-.27.53-.4.8-.67.13-1.3.23-1.9.3-.6.07-1.23.1-1.9.1-.27.13-.63.37-1.1.7-.47.33-.9.63-1.3.9-.54-.27-.97-.53-1.3-.8-.33-.27-.7-.47-1.1-.6-.27,0-.6-.03-1-.1-.4-.07-.73-.03-1,.1-.94.4-2.17.5-3.7.3-1.53-.2-2.83-.3-3.9-.3-1.34,0-2.57.17-3.7.5-1.13.33-2.3.77-3.5,1.3-.93.53-1.9.83-2.9.9-1,.07-2.03.3-3.1.7-.67.93-.93,1.8-.8,2.6.27,1.07.5,2.23.7,3.5.2,1.27.03,2.57-.5,3.9,0,.53.07.87.2,1,.53,1.33.8,2.67.8,4s-.13,2.73-.4,4.2c-.13,1.33-.2,2.63-.2,3.9s-.13,2.63-.4,4.1c-.27,1.47-.2,2.8.2,4,.13.8.2,1.6.2,2.4v2.2c-.13.93-.2.93-.2,0v.6c0,.13-.03.23-.1.3-.07.07-.1.17-.1.3.13,2.27.17,3.97.1,5.1-.07,1.13-.17,2.13-.3,3-.13.87-.4,2.17-.8,3.9v1c.53,2.13.8,4.3.8,6.5s-.07,4.37-.2,6.5c0,1.47.03,2.93.1,4.4.07,1.47.37,3,.9,4.6-.13.8-.33,1.7-.6,2.7-.27,1-.6,1.97-1,2.9-.13.53-.37,1-.7,1.4-.34.4-.84.87-1.5,1.4-3.2-.27-6.2,0-9,.8-1.47.53-3,.33-4.6-.6l-.4-.4c-2-1.2-3.94-1.4-5.8-.6-.8.4-1.6.53-2.4.4-.8-.13-1.53-.2-2.2-.2-.94,0-1.73.33-2.4,1-.67.67-1.54.73-2.6.2-.13-1.07-.04-2.07.3-3,.33-.93.57-2,.7-3.2-.13-.93-.37-1.93-.7-3-.33-1.07-.63-2.13-.9-3.2.27-.67.46-1.3.6-1.9.13-.6.2-1.17.2-1.7.13-.67.17-1.37.1-2.1-.07-.73-.1-1.43-.1-2.1.13-2.13.17-4.17.1-6.1-.07-1.93-.23-3.9-.5-5.9-.27-1.6-.43-3.17-.5-4.7-.07-1.53-.17-3.17-.3-4.9.4-.53.77-1.07,1.1-1.6.33-.53.77-1.07,1.3-1.6l.2-1.6v-2c-.13-1.87-.13-3.83,0-5.9.13-2.07.4-4.03.8-5.9-.13-1.47-.34-2.9-.6-4.3-.27-1.4-.73-2.77-1.4-4.1.27-.67.56-1.33.9-2,.33-.67.57-1.27.7-1.8-.13-1.07-.1-2,.1-2.8.2-.8.1-1.67-.3-2.6-.13-.4-.47-.73-1-1-.93,0-1.87-.07-2.8-.2-.93-.13-1.87-.2-2.8-.2s-1.83-.13-2.7-.4c-.87-.27-1.77-.27-2.7,0-.8.4-1.57.43-2.3.1-.73-.33-1.5-.43-2.3-.3h-5.2l-5-.8c-.27,0-.6-.2-1-.6s-.6-.8-.6-1.2v-1.4c.27-.8.5-1.63.7-2.5.2-.87.17-1.77-.1-2.7-.13-.13-.17-.37-.1-.7.07-.33.1-.57.1-.7.53-2.4.8-5.2.8-8.4s-.13-6-.4-8.4v-2.4c0-.8.13-1.53.4-2.2.67-.67,1.33-1.03,2-1.1.67-.07,1.33-.17,2-.3.67-.27,1.27-.57,1.8-.9.53-.33,1.13-.57,1.8-.7,3.07-1.07,5.93-1.07,8.6,0l1.4.4c1.2-.53,2.47-.77,3.8-.7,1.33.07,2.73-.23,4.2-.9.27,0,.7.03,1.3.1.6.07,1.23.1,1.9.1,1.2-.53,2.43-1.07,3.7-1.6,1.27-.53,2.5-1.33,3.7-2.4,2.13-.27,4.23-.33,6.3-.2,2.07.13,4.03-.13,5.9-.8.93.13,1.77.37,2.5.7.73.33,1.37.63,1.9.9.93,0,1.67-.3,2.2-.9.53-.6,1.33-.97,2.4-1.1,1.07-.27,2.6-.2,4.6.2.8.13,1.63.5,2.5,1.1s1.77.83,2.7.7c.67-.4,1.23-.8,1.7-1.2.47-.4,1.03-.8,1.7-1.2.8,0,1.66.17,2.6.5.93.33,1.8.43,2.6.3.93-.13,1.83-.3,2.7-.5.87-.2,1.97-.3,3.3-.3.53.13,1.07.3,1.6.5.53.2,1.07.43,1.6.7.8-.27,1.63-.47,2.5-.6.87-.13,1.77-.27,2.7-.4.27.4.53.8.8,1.2.27.4.47.73.6,1Z"/>
</svg>